<svg xmlns="http://www.w3.org/2000/svg" width="113" height="74.699" viewBox="0 0 113 74.699"><defs><style>.a,.f{fill:#fff;}.b{fill:none;stroke-linecap:round;stroke-miterlimit:10;}.c{fill:#ed2128;}.d{fill:#ffe400;}.e,.f{stroke:none;}</style></defs><g transform="translate(-98.078 -165.827)"><g transform="translate(98.078 215.976)"><path class="a" d="M107.456,277.248a9.138,9.138,0,0,1-9.378-9.465,9.276,9.276,0,0,1,9.508-9.718,11.51,11.51,0,0,1,4.919.991v3.526a8.678,8.678,0,0,0-4.919-1.547c-3.441,0-6.094,2.614-6.08,6.658,0,3.654,2.419,6.56,6.274,6.554a8.124,8.124,0,0,0,4.841-1.447v3.336a11.954,11.954,0,0,1-5.164,1.112" transform="translate(-98.078 -257.955)"/><path class="a" d="M134.723,273.66a3.284,3.284,0,0,0-3.238,3.431,3.35,3.35,0,0,0,3.294,3.43,3.435,3.435,0,0,0-.057-6.86m-.071,9.512a5.951,5.951,0,0,1-6.181-6.053,6.115,6.115,0,0,1,6.3-6.105,6.02,6.02,0,0,1,6.293,6.066,6.132,6.132,0,0,1-6.408,6.093" transform="translate(-111.91 -263.848)"/><path class="a" d="M156.722,277.16l-.016-19.3h2.975l.022,19.29Z" transform="translate(-124.76 -257.863)"/><path class="a" d="M181.066,283.615h-2.785l-1.987-5.964c-.182-.551-.392-1.295-.569-2.1a18.314,18.314,0,0,1-.557,2.136l-1.909,5.929-2.891,0-4.639-11.5,3.216-.013,2.178,5.859c.264.716.5,1.542.694,2.288a19.718,19.718,0,0,1,.572-2.21l1.938-5.943,2.934,0,1.881,5.708c.267.835.508,1.624.683,2.41.212-.786.526-1.693.762-2.36l2.07-5.762,3.1,0Z" transform="translate(-128.866 -264.34)"/><path class="a" d="M210.119,273.555a3.286,3.286,0,0,0-3.2,3.473,3.392,3.392,0,0,0,3.285,3.594,3.275,3.275,0,0,0,3.233-3.525,3.314,3.314,0,0,0-3.316-3.541m3.184,9.189v-1.41a4.9,4.9,0,0,1-3.914,1.731c-3.283,0-5.552-2.516-5.555-5.936,0-3.552,2.344-6.2,5.7-6.2a4.559,4.559,0,0,1,3.765,1.781l-.01-1.475,2.971,0,.017,10.626v.886Z" transform="translate(-146.209 -263.81)"/><path class="a" d="M238.016,273.513a3.4,3.4,0,0,0,.059,6.784,3.175,3.175,0,0,0,3.125-3.447,3.142,3.142,0,0,0-3.184-3.337m4.567,13.261a6.275,6.275,0,0,1-4.683,1.589c-3.441,0-5.388-1.83-5.5-4.469h2.927a2.474,2.474,0,0,0,2.729,2.188c2.077,0,3.051-.98,3.042-3.407V281a4.654,4.654,0,0,1-3.781,1.673c-3.413.013-5.488-2.558-5.488-5.718a5.7,5.7,0,0,1,5.525-6.019,4.365,4.365,0,0,1,3.738,1.732l-.007-1.453h2.977l.009,10.7c0,2.336-.385,3.782-1.492,4.855" transform="translate(-158.951 -263.814)"/><path class="a" d="M265.222,273.048a2.789,2.789,0,0,0-2.781,2.651l5.488-.013a2.6,2.6,0,0,0-2.707-2.638m5.74,4.635-8.546.011a3.089,3.089,0,0,0,3.186,2.969,3.9,3.9,0,0,0,3.182-1.635l1.966,1.386a6.39,6.39,0,0,1-5.44,2.579,5.65,5.65,0,0,1-5.862-6.031,5.789,5.789,0,0,1,5.827-6.158c3.333,0,5.7,2.231,5.7,5.912,0,.314-.016.626-.016.967" transform="translate(-171.519 -263.753)"/><path class="a" d="M293.485,283.491l-.012-6.611c0-1.51-.578-2.578-2.11-2.578a2.708,2.708,0,0,0-2.674,2.888l0,6.307-2.965.007-.017-11.514h2.947v1.524a4.411,4.411,0,0,1,3.677-1.764,4.232,4.232,0,0,1,3.052,1.092,4.437,4.437,0,0,1,1.083,3.392l0,7.253Z" transform="translate(-183.472 -264.183)"/></g><g transform="translate(145.028 165.827)"><g class="b" transform="translate(0 0)"><path class="e" d="M0,29.172V27.726H0V0H19.292V27.726h0v1.446c-3.215-1.781-6.43-.891-9.645,0A21.248,21.248,0,0,1,4.078,30.2,8.2,8.2,0,0,1,0,29.172Z"/><path class="f" d="M 4.078024387359619 29.19987297058105 C 5.797854423522949 29.19980239868164 7.537274360656738 28.71825408935547 9.379704475402832 28.20818328857422 C 11.26889419555664 27.68488311767578 13.22241401672363 27.14376258850098 15.21475410461426 27.14376258850098 C 16.30787467956543 27.14376258850098 17.325439453125 27.30582046508789 18.29141235351563 27.63599014282227 L 18.29230499267578 26.7257022857666 L 18.29230499267578 1.000003218650818 L 1.000004410743713 1.000003218650818 L 1.000004410743713 26.7257022857666 L 1.001964449882507 26.7257022857666 L 1.001964449882507 27.7257022857666 L 1.001964449882507 28.55696105957031 C 1.95077383518219 28.9890308380127 2.962564945220947 29.19991493225098 4.078024387359619 29.19987297058105 M 4.078064441680908 30.19987297058105 C 2.719264507293701 30.19992256164551 1.360864400863647 29.92451286315918 0.001964403782039881 29.17189407348633 L 0.001964403782039881 27.7257022857666 L 4.403686489240499e-06 27.7257022857666 L 4.403686489240499e-06 3.188171376677928e-06 L 19.29230499267578 3.188171376677928e-06 L 19.29230499267578 27.7257022857666 L 19.29132461547852 27.7257022857666 L 19.29132461547852 29.17189407348633 C 17.93242073059082 28.41926765441895 16.57355880737305 28.14376258850098 15.21475696563721 28.14376258850098 C 13.35874176025391 28.14376258850098 11.50279998779297 28.65774536132813 9.646644592285156 29.17189407348633 C 7.790484428405762 29.68576240539551 5.934084415435791 30.19979286193848 4.078064441680908 30.19987297058105 Z"/></g><path class="c" d="M203.536,224.227c-6.43-3.561-12.859,3.561-19.29,0V221.1c6.43,3.562,12.86-3.561,19.29,0Z" transform="translate(-184.244 -190.516)"/><path class="d" d="M203.536,232.2c-6.43-3.561-12.859,3.561-19.29,0V229.08c6.43,3.561,12.86-3.561,19.29,0Z" transform="translate(-184.244 -194.146)"/></g></g></svg>